<svg width="305" height="305" viewBox="0 0 305 305" fill="none" xmlns="http://www.w3.org/2000/svg">
<mask id="mask0_126_1734" style="mask-type:alpha" maskUnits="userSpaceOnUse" x="0" y="0" width="305" height="305">
<path d="M0 152.5C0 26.9162 26.9162 0 152.5 0C278.084 0 305 26.9162 305 152.5C305 278.084 278.084 305 152.5 305C26.9162 305 0 278.084 0 152.5Z" fill="#C4C4C4"/>
</mask>
<g mask="url(#mask0_126_1734)">
<rect width="305" height="305" transform="translate(-1)" fill="#FACA30"/>
</g>
<g clip-path="url(#clip0_126_1734)">
<path fill-rule="evenodd" clip-rule="evenodd" d="M150.832 44.5093C151.839 43.8302 153.161 43.8302 154.168 44.5093C155.346 45.3044 155.977 53.0927 157.238 68.6701L157.676 74.0836H187.614C211.31 74.0839 230.519 93.2949 230.519 116.992V124.389H215.724V116.992C215.724 101.466 203.139 88.8794 187.614 88.8792H158.899C160.231 103.863 161.564 112.577 165.467 119.71C169.709 127.464 176.054 133.881 183.78 138.234C192.544 143.171 203.795 144.27 226.295 146.465L238.654 147.669C252.699 149.039 259.725 149.725 260.507 150.896C261.174 151.897 261.164 153.201 260.481 154.193C259.683 155.352 252.647 155.928 238.579 157.077L230.519 157.735V188.01C230.518 211.707 211.31 230.915 187.614 230.916H157.64L157.238 235.982C155.979 251.786 155.349 259.69 154.17 260.49C153.163 261.17 151.84 261.17 150.832 260.49C149.653 259.694 149.023 251.791 147.765 235.982L147.36 230.916H116.596C92.9 230.915 73.6889 211.706 73.6886 188.01V180.612H88.484V188.01C88.4843 203.535 101.071 216.12 116.596 216.12H146.156C144.806 200.565 143.474 191.596 139.447 184.304C135.121 176.47 128.648 170.017 120.779 165.694C111.851 160.789 100.404 159.854 77.5127 157.983L66.4209 157.077C52.3528 155.928 45.3177 155.352 44.5192 154.193C43.8369 153.201 43.8261 151.897 44.4927 150.896C45.2737 149.724 52.2996 149.039 66.3463 147.669L73.6886 146.951V116.992C73.6886 93.295 92.8999 74.084 116.596 74.0836H147.326L147.765 68.6701C149.024 53.095 149.654 45.3063 150.832 44.5093ZM215.724 158.973C200.379 160.347 191.471 161.712 184.223 165.694C176.354 170.017 169.879 176.47 165.553 184.304C161.526 191.596 160.194 200.565 158.844 216.12H187.614C203.138 216.12 215.723 203.535 215.724 188.01V158.973ZM116.596 88.8792C101.071 88.8795 88.484 101.466 88.484 116.992V145.492C104.669 143.829 113.829 142.398 121.22 138.234C128.946 133.881 135.291 127.464 139.533 119.71C143.436 112.577 144.772 103.864 146.103 88.8792H116.596Z" fill="black"/>
</g>
<defs>
<clipPath id="clip0_126_1734">
<rect width="217" height="217" fill="white" transform="translate(44 44)"/>
</clipPath>
</defs>
</svg>
