<svg viewBox="0 0 217 217" xmlns="http://www.w3.org/2000/svg">
<path fill-rule="evenodd" clip-rule="evenodd" d="M106.832 0.509C107.839 -0.17 109.161 -0.17 110.168 0.509C111.346 1.304 111.977 9.093 113.238 24.67L113.676 30.084H143.614C167.31 30.084 186.519 49.295 186.519 72.992V80.389H171.724V72.992C171.724 57.466 159.139 44.879 143.614 44.879H114.899C116.231 59.863 117.564 68.577 121.467 75.71C125.709 83.464 132.054 89.881 139.78 94.234C148.544 99.171 159.795 100.27 182.295 102.465L194.654 103.669C208.699 105.039 215.725 105.725 216.507 106.896C217.174 107.897 217.164 109.201 216.481 110.193C215.683 111.352 208.647 111.928 194.579 113.077L186.519 113.735V144.01C186.518 167.707 167.31 186.915 143.614 186.916H113.64L113.238 191.982C111.979 207.786 111.349 215.69 110.17 216.49C109.163 217.17 107.84 217.17 106.832 216.49C105.653 215.694 105.023 207.791 103.765 191.982L103.36 186.916H72.596C48.9 186.915 29.689 167.706 29.689 144.01V136.612H44.484V144.01C44.484 159.535 57.071 172.12 72.596 172.12H102.156C100.806 156.565 99.474 147.596 95.447 140.304C91.121 132.47 84.648 126.017 76.779 121.694C67.851 116.789 56.404 115.854 33.513 113.983L22.421 113.077C8.353 111.928 1.318 111.352 0.519 110.193C-0.163 109.201 -0.174 107.897 0.493 106.896C1.274 105.724 8.3 105.039 22.346 103.669L29.689 102.951V72.992C29.689 49.295 48.9 30.084 72.596 30.084H103.326L103.765 24.67C105.024 9.095 105.654 1.306 106.832 0.509ZM171.724 114.973C156.379 116.347 147.471 117.712 140.223 121.694C132.354 126.017 125.879 132.47 121.553 140.304C117.526 147.596 116.194 156.565 114.844 172.12H143.614C159.138 172.12 171.723 159.535 171.724 144.01V114.973ZM72.596 44.879C57.071 44.88 44.484 57.466 44.484 72.992V101.492C60.669 99.829 69.829 98.398 77.22 94.234C84.946 89.881 91.291 83.464 95.533 75.71C99.436 68.577 100.772 59.864 102.103 44.879H72.596Z" fill="currentColor"/>
</svg>
